<?xml version="1.0" encoding="UTF-8" standalone="no"?><!DOCTYPE svg PUBLIC "-//W3C//DTD SVG 1.1//EN" "http://www.w3.org/Graphics/SVG/1.1/DTD/svg11.dtd"><svg width="100%" height="100%" viewBox="0 0 7698 7698" version="1.1" xmlns="http://www.w3.org/2000/svg" xmlns:xlink="http://www.w3.org/1999/xlink" xml:space="preserve" xmlns:serif="http://www.serif.com/" style="fill-rule:evenodd;clip-rule:evenodd;stroke-linejoin:round;stroke-miterlimit:2;"><g id="Layer-1" serif:id="Layer 1"><circle id="path1" cx="3848.65" cy="3848.65" r="6317.237"/><g id="text3"></g><path id="path1-3" d="M3069.161,1855.318l3364.585,-12.148c295.039,-1.065 487.95,-1.762 487.95,-260.706c0,-287.716 -209.932,-286.958 -539.015,-285.769l-3211.392,11.595c119.15,-554.283 119.15,-597.44 226.953,-1144.489c85.107,-395.917 243.975,-1166.13 243.975,-1216.48c0,-194.209 -107.803,-258.555 -243.975,-258.063c-329.083,1.188 -1702.151,178.775 -2122.015,223.448c-136.172,22.08 -329.083,44.345 -329.083,468.726c0,237.365 175.889,236.73 419.864,235.849c834.054,-3.011 868.097,155.11 868.097,370.896c0,158.242 -158.868,885.299 -243.975,1324.373l-975.9,3.524c-346.104,1.25 -539.015,1.946 -539.015,289.662c0,258.944 158.868,258.371 487.95,257.182l919.162,-3.319l-2218.47,11243.31c-73.76,323.947 -73.76,374.297 -73.76,503.769c0,481.924 295.04,617.524 504.972,616.766c329.082,-1.188 573.058,-311.364 641.144,-599.325c39.716,-108.037 226.953,-1101.332 334.756,-1655.574l397.169,-1957.901c51.065,-331.058 226.953,-1166.068 278.018,-1497.126c85.107,-352.759 209.932,-1036.535 226.953,-1101.332c136.172,-374.522 1072.355,-2694.014 2814.223,-2700.304c760.294,-2.745 936.183,795.031 936.183,1521.513c0,1359.457 -800.011,4052.488 -1112.072,5067.813c-102.13,352.821 -192.91,655.25 -192.91,1079.631c0,1143.67 646.817,1824.66 1424.133,1821.853c1668.108,-6.023 2275.209,-3266.596 2275.209,-3403.261c0,-215.786 -153.194,-215.233 -204.258,-215.049c-175.889,0.635 -175.889,65.371 -260.997,396.551c-504.971,2246.006 -1287.961,2730.757 -1758.889,2732.457c-329.083,1.188 -431.212,-257.387 -431.212,-724.925c0,-546.66 192.91,-1165.945 295.04,-1540.344c295.039,-972.106 1078.029,-3614.725 1078.029,-4844.71c0,-1611.208 -800.011,-2377.959 -1997.191,-2373.637c-539.015,1.946 -1583,156.766 -2570.248,1685.224l800.011,-4059.681Z" style="fill:#00ffe5;fill-rule:nonzero;"/></g></svg>