<?xml version="1.0" encoding="UTF-8"?>
<svg clip-rule="evenodd" fill-rule="evenodd" stroke-linejoin="round" stroke-miterlimit="2" version="1.1" viewBox="0 0 7698 7698" xml:space="preserve" xmlns="http://www.w3.org/2000/svg"><defs><clipPath id="clipPath1"><rect width="7698" height="7698"/></clipPath></defs><rect width="7698" height="7698"/><g clip-path="url(#clipPath1)"><path d="m3069.2 1855.3 3364.6-12.148c295.04-1.065 487.95-1.762 487.95-260.71 0-287.72-209.93-286.96-539.02-285.77l-3211.4 11.595c119.15-554.28 119.15-597.44 226.95-1144.5 85.107-395.92 243.98-1166.1 243.98-1216.5 0-194.21-107.8-258.56-243.98-258.06-329.08 1.188-1702.2 178.78-2122 223.45-136.17 22.08-329.08 44.345-329.08 468.73 0 237.36 175.89 236.73 419.86 235.85 834.05-3.011 868.1 155.11 868.1 370.9 0 158.24-158.87 885.3-243.98 1324.4l-975.9 3.524c-346.1 1.25-539.02 1.946-539.02 289.66 0 258.94 158.87 258.37 487.95 257.18l919.16-3.319-2218.5 11243c-73.76 323.95-73.76 374.3-73.76 503.77 0 481.92 295.04 617.52 504.97 616.77 329.08-1.188 573.06-311.36 641.14-599.32 39.716-108.04 226.95-1101.3 334.76-1655.6l397.17-1957.9c51.065-331.06 226.95-1166.1 278.02-1497.1 85.107-352.76 209.93-1036.5 226.95-1101.3 136.17-374.52 1072.4-2694 2814.2-2700.3 760.29-2.745 936.18 795.03 936.18 1521.5 0 1359.5-800.01 4052.5-1112.1 5067.8-102.13 352.82-192.91 655.25-192.91 1079.6 0 1143.7 646.82 1824.7 1424.1 1821.9 1668.1-6.023 2275.2-3266.6 2275.2-3403.3 0-215.79-153.19-215.23-204.26-215.05-175.89 0.635-175.89 65.371-261 396.55-504.97 2246-1288 2730.8-1758.9 2732.5-329.08 1.188-431.21-257.39-431.21-724.92 0-546.66 192.91-1165.9 295.04-1540.3 295.04-972.11 1078-3614.7 1078-4844.7 0-1611.2-800.01-2378-1997.2-2373.6-539.02 1.946-1583 156.77-2570.2 1685.2l800.01-4059.7z" fill="#00ffe5" fill-rule="nonzero"/></g></svg>
